<svg width="93" height="40" viewBox="0 0 93 40" fill="none" xmlns="http://www.w3.org/2000/svg">
<path d="M26.7141 26.4383H19.2861L15.8889 14.498L12.5039 26.4383H5.06068L-1.8596e-07 4.09207H7.4981L9.44499 14.1906L12.2937 4.09207H19.4719L22.3267 14.1846L24.2767 4.09207H31.7443L26.7141 26.4383ZM20.1087 25.3756H25.8457L30.3946 5.16073H25.1694L22.5217 18.8682L18.6462 5.16073H13.1194L9.24695 18.8921L6.60235 5.16073H1.35277L5.94425 25.3816H11.6813L15.8859 10.5339L20.1087 25.3756Z" fill="#0F63E1"/>
<path d="M52.2777 26.4383H32.8789V4.09207H51.9517V9.69804H40.6786V12.0264H51.126V17.4294H40.6908V20.5637H52.2686L52.2777 26.4383ZM33.9605 25.3756H51.193V21.6174H39.6153V16.3607H50.0657V13.0771H39.6062V8.63535H50.8792V5.16073H33.9636L33.9605 25.3756Z" fill="#0F63E1"/>
<path d="M9.98149 30.2359L8.15343 30.5613C8.11665 30.251 7.96746 29.9639 7.73298 29.7523C7.49258 29.5638 7.19051 29.4673 6.88293 29.4807C6.67399 29.472 6.46574 29.5096 6.27372 29.5907C6.08169 29.6719 5.91084 29.7945 5.7739 29.9493C5.49766 30.2617 5.35954 30.7861 5.35954 31.5224C5.35954 32.3384 5.4997 32.9155 5.78 33.2538C5.91476 33.4182 6.08687 33.5494 6.28261 33.637C6.47834 33.7246 6.69227 33.7661 6.9073 33.7583C7.22389 33.7696 7.53308 33.6629 7.77258 33.4598C8.03845 33.1804 8.20515 32.8245 8.24788 32.4448L10.0759 32.7433C9.94371 33.4685 9.55808 34.126 8.9852 34.603C8.35912 35.0497 7.59543 35.272 6.82199 35.2329C6.3667 35.2539 5.91206 35.1798 5.48818 35.0156C5.0643 34.8515 4.68086 34.601 4.36325 34.2807C3.7539 33.6458 3.44922 32.7662 3.44922 31.6419C3.44922 30.5175 3.7539 29.6329 4.36325 28.9881C4.68611 28.6674 5.07445 28.417 5.50288 28.2534C5.93131 28.0898 6.39016 28.0167 6.84941 28.0389C7.57122 28.0014 8.28639 28.1907 8.89075 28.5792C9.43445 28.9952 9.81879 29.579 9.98149 30.2359Z" fill="#0F63E1"/>
<path d="M10.9584 31.5496C10.961 30.9366 11.118 30.3337 11.4154 29.7944C11.7042 29.2447 12.1555 28.7932 12.7103 28.4989C13.284 28.1968 13.9267 28.0427 14.578 28.0511C15.0616 28.0344 15.5435 28.116 15.9934 28.2906C16.4433 28.4653 16.8514 28.7293 17.1921 29.066C17.5295 29.4041 17.7936 29.8055 17.9685 30.2462C18.1434 30.6869 18.2254 31.1577 18.2097 31.6302C18.2247 32.1073 18.1412 32.5824 17.9642 33.0271C17.7873 33.4719 17.5205 33.877 17.1799 34.2183C16.8442 34.5556 16.4407 34.8211 15.995 34.9978C15.5492 35.1746 15.0709 35.2588 14.5902 35.2451C13.9552 35.2442 13.3293 35.098 12.7621 34.8183C12.1935 34.5487 11.7264 34.1099 11.4276 33.5645C11.1015 32.942 10.9402 32.2492 10.9584 31.5496ZM12.8627 31.6481C12.824 32.2128 13.001 32.7714 13.3593 33.2153C13.5114 33.3853 13.6988 33.5215 13.909 33.6148C14.1192 33.7081 14.3472 33.7563 14.578 33.7563C14.8087 33.7563 15.0368 33.7081 15.247 33.6148C15.4572 33.5215 15.6446 33.3853 15.7967 33.2153C16.1546 32.7656 16.3304 32.2021 16.2903 31.6332C16.3279 31.0728 16.152 30.5187 15.7967 30.078C15.6446 29.908 15.4572 29.7718 15.247 29.6785C15.0368 29.5852 14.8087 29.5369 14.578 29.5369C14.3472 29.5369 14.1192 29.5852 13.909 29.6785C13.6988 29.7718 13.5114 29.908 13.3593 30.078C13.001 30.5219 12.824 31.0805 12.8627 31.6451V31.6481Z" fill="#0F63E1"/>
<path d="M19.5273 28.2039H21.2396V29.1442C21.4925 28.8071 21.8222 28.5325 22.2025 28.3423C22.5829 28.1522 23.0033 28.0516 23.4303 28.0487C23.8376 28.0387 24.2407 28.1323 24.6002 28.3204C24.9445 28.5153 25.2262 28.8007 25.4137 29.1442C25.6865 28.8062 26.0265 28.5259 26.413 28.3204C26.7665 28.1394 27.1598 28.0461 27.5586 28.0487C28.0147 28.0316 28.4672 28.1346 28.8687 28.3472C29.2275 28.5531 29.5086 28.8673 29.67 29.2427C29.8233 29.7027 29.8884 30.1865 29.862 30.6696V35.0696H28.0035V31.1532C28.0035 30.4706 27.9395 30.0298 27.8115 29.8308C27.726 29.7029 27.6073 29.5995 27.4675 29.5313C27.3278 29.4631 27.1721 29.4326 27.0163 29.4427C26.7528 29.4437 26.4961 29.5251 26.282 29.6756C26.0435 29.843 25.8688 30.0835 25.7854 30.3592C25.664 30.824 25.6127 31.3037 25.6331 31.783V35.0875H23.7745V31.3174C23.796 30.8831 23.7622 30.4479 23.674 30.0218C23.6236 29.8479 23.5166 29.6949 23.3693 29.586C23.1999 29.4825 23.002 29.4325 22.8026 29.4427C22.5271 29.4396 22.2572 29.5187 22.0287 29.6696C21.7942 29.8272 21.6204 30.0574 21.5352 30.3233C21.4147 30.7862 21.3644 31.264 21.3859 31.7412V35.0845H19.5273V28.2039Z" fill="#0F63E1"/>
<path d="M31.6641 28.2033H33.3977V29.2152C33.6274 28.8656 33.9413 28.5765 34.3117 28.3735C34.7001 28.1557 35.1408 28.0434 35.5883 28.0481C35.9841 28.0447 36.3757 28.1272 36.7349 28.2898C37.0942 28.4524 37.4123 28.691 37.6662 28.9884C38.2349 29.6152 38.5193 30.4879 38.5193 31.6063C38.5193 32.7565 38.2329 33.6521 37.6601 34.2929C37.407 34.5938 37.0886 34.8357 36.7281 35.0009C36.3677 35.1661 35.9741 35.2506 35.5761 35.2481C35.2116 35.2529 34.8508 35.1753 34.5219 35.0212C34.1446 34.8224 33.8071 34.5585 33.5256 34.2421V37.6988H31.6671L31.6641 28.2033ZM33.4921 31.5287C33.4921 32.3028 33.6485 32.874 33.9613 33.2421C34.0957 33.4149 34.269 33.5549 34.4677 33.6513C34.6664 33.7476 34.8852 33.7976 35.1069 33.7973C35.3145 33.8001 35.5199 33.7558 35.707 33.6677C35.8942 33.5797 36.0579 33.4503 36.1855 33.2899C36.4719 32.9516 36.6151 32.3953 36.6151 31.6212C36.6151 30.8988 36.4668 30.3635 36.1702 30.0152C36.0413 29.8506 35.8751 29.7175 35.6848 29.6263C35.4945 29.5352 35.2852 29.4885 35.0734 29.4899C34.8574 29.4864 34.6434 29.5311 34.4475 29.6206C34.2517 29.71 34.0792 29.8419 33.943 30.0063C33.616 30.4463 33.4594 30.9859 33.5013 31.5287H33.4921Z" fill="#0F63E1"/>
<path d="M41.3815 30.3049L39.6936 30.0064C39.8288 29.411 40.1754 28.882 40.6716 28.5138C41.1347 28.1934 41.8223 28.0332 42.7343 28.0332C43.3664 28.0025 43.998 28.1042 44.5867 28.3317C44.9435 28.4813 45.243 28.7372 45.4429 29.0631C45.6074 29.3596 45.6897 29.9029 45.6897 30.6929L45.6683 32.8183C45.6564 33.2658 45.6859 33.7134 45.7567 34.1556C45.8285 34.4756 45.9411 34.7855 46.0918 35.078H44.2638C44.215 34.9566 44.1551 34.7775 44.084 34.5407C44.0535 34.4332 44.0322 34.3616 44.017 34.3258C43.7232 34.6147 43.3771 34.8476 42.9963 35.0123C42.6302 35.1644 42.2362 35.2415 41.8385 35.2392C41.2139 35.2733 40.6004 35.0665 40.1293 34.6631C39.9252 34.4805 39.763 34.2576 39.6532 34.009C39.5434 33.7605 39.4887 33.492 39.4925 33.2213C39.4856 32.8549 39.5838 32.4939 39.7759 32.1795C39.9658 31.8739 40.2435 31.6299 40.5741 31.478C41.0469 31.2774 41.5433 31.135 42.0518 31.0541C42.6668 30.9597 43.2716 30.8098 43.8585 30.6064V30.4243C43.8725 30.288 43.8561 30.1504 43.8103 30.021C43.7645 29.8916 43.6905 29.7736 43.5935 29.675C43.2948 29.4942 42.9434 29.4154 42.5941 29.4511C42.3223 29.4358 42.0522 29.5025 41.8203 29.6422C41.6088 29.8144 41.4558 30.0455 41.3815 30.3049ZM43.8677 31.7974C43.4959 31.9084 43.1186 32.0011 42.7373 32.075C42.3854 32.128 42.044 32.2348 41.7258 32.3914C41.6149 32.4596 41.5235 32.5543 41.46 32.6665C41.3966 32.7788 41.3633 32.9049 41.3632 33.0332C41.3644 33.1579 41.392 33.281 41.4445 33.3946C41.497 33.5082 41.5731 33.6098 41.6679 33.6929C41.766 33.7855 41.8821 33.8578 42.0093 33.9055C42.1365 33.9532 42.2722 33.9753 42.4083 33.9705C42.7557 33.9664 43.0924 33.8523 43.368 33.6452C43.5798 33.5001 43.7363 33.29 43.8128 33.0481C43.8755 32.7538 43.9001 32.453 43.886 32.1526L43.8677 31.7974Z" fill="#0F63E1"/>
<path d="M53.916 35.087H52.0575V31.5736C52.0837 31.09 52.0437 30.6051 51.9387 30.1318C51.8684 29.9265 51.7328 29.7486 51.5517 29.6244C51.3609 29.4995 51.1352 29.4358 50.9058 29.4423C50.5969 29.4388 50.2945 29.5296 50.0405 29.702C49.7909 29.8661 49.6052 30.108 49.5134 30.3885C49.3936 30.9072 49.3454 31.4394 49.3702 31.9706V35.087H47.5117V28.2035H49.2392V29.2154C49.6197 28.7007 50.1663 28.3269 50.7906 28.1546C51.4149 27.9823 52.0804 28.0216 52.679 28.2661C52.9804 28.3832 53.2459 28.5745 53.4499 28.8214C53.6245 29.0481 53.7481 29.3086 53.8124 29.5856C53.8921 29.9886 53.9268 30.399 53.916 30.8094V35.087Z" fill="#0F63E1"/>
<path d="M65.3242 21.0185C65.5706 20.8089 65.7656 20.5477 65.8948 20.2542C66.0241 19.9606 66.0841 19.6423 66.0706 19.323C66.0809 19.0205 66.0197 18.7198 65.8918 18.4443C65.7639 18.1688 65.5728 17.9261 65.3333 17.7349C64.8418 17.3369 63.9805 17.1379 62.7496 17.1379H59.1758V21.6543H62.7618C63.9724 21.6503 64.8265 21.4384 65.3242 21.0185Z" fill="#0F63E1"/>
<path d="M64.5259 12.3243C64.7472 12.1196 64.9196 11.8695 65.0307 11.5918C65.1419 11.3142 65.189 11.0159 65.1688 10.7184C65.1846 10.4337 65.135 10.1491 65.0238 9.88567C64.9125 9.62221 64.7424 9.38654 64.5259 9.19599C64.0973 8.83181 63.3499 8.64972 62.2835 8.64972H59.1758V12.8796H62.2225C63.3174 12.8835 64.0851 12.6985 64.5259 12.3243Z" fill="#0F63E1"/>
<path d="M72.5704 2.33961e-05C68.0713 -0.00677112 63.6971 1.44943 60.1335 4.14032H65.2429C67.4366 4.14032 69.1215 4.67266 70.2975 5.73733C70.8645 6.23343 71.3154 6.84368 71.6194 7.52634C71.9233 8.20899 72.0731 8.94792 72.0586 9.69256C72.0854 10.9371 71.6366 12.1465 70.8003 13.0836C70.1299 13.7826 69.2843 14.2972 68.3476 14.5761C69.9827 14.9622 71.1862 15.6239 71.958 16.5612C72.7541 17.5715 73.1637 18.8231 73.1158 20.0985C73.1329 21.1919 72.8487 22.2695 72.2932 23.2179C71.7546 24.1313 70.9775 24.8875 70.0416 25.409C69.2066 25.8146 68.3012 26.0627 67.3726 26.1403C66.3284 26.2927 65.2769 26.3923 64.2223 26.4388H53.2539C54.6613 30.4783 57.3479 33.9722 60.9226 36.4119C61.146 36.1309 61.3079 35.8078 61.3979 35.4627L58.7259 28.5612H60.7033L62.3851 33.4478L64.0242 28.5612H65.9498L63.4697 35.1851L63.0249 36.3791C62.9029 36.7008 62.7466 37.0089 62.5587 37.2985L62.4948 37.3851C65.2123 38.8993 68.2484 39.7818 71.3691 39.9644C74.4898 40.1471 77.6116 39.625 80.4937 38.4386C83.3759 37.2521 85.9414 35.4329 87.9924 33.1213C90.0435 30.8097 91.5252 28.0675 92.3233 25.1061C93.1214 22.1446 93.2147 19.0432 92.5958 16.0408C91.977 13.0385 90.6625 10.2156 88.7539 7.78973C86.8453 5.36387 84.3935 3.39992 81.5876 2.04934C78.7817 0.698752 75.6967 -0.00237666 72.5704 2.33961e-05Z" fill="#0F63E1"/>
</svg>
